<svg height="512" viewBox="0 0 64 64" width="512" xmlns="http://www.w3.org/2000/svg"><g id="Filled_outline" data-name="Filled outline"><circle cx="32" cy="32" fill="#b459a1" r="29"/><circle cx="32" cy="32" fill="#394d5c" r="25"/><path d="m43 38a2 2 0 0 0 -2 2v1a2 2 0 0 1 -4 0v-2c0-4 3-13 3-13 1.365-5.459-2.451-11-8.079-11a7.843 7.843 0 0 0 -7.921 10l1 4h-1a6 6 0 1 0 .037 12 6.064 6.064 0 0 0 5.963-5c.838-4.514-1-5-2.117-11.44-.495-2.851 1.255-5.56 4.149-5.56h.144c2.944 0 4.573 3.153 3.824 6 0 0-3 10-3 13v3a6 6 0 0 0 12 0v-1a2 2 0 0 0 -2-2zm-19-1a2 2 0 1 1 2-2 2 2 0 0 1 -2 2z" fill="#e97424"/><path d="m32 2a30 30 0 1 0 30 30 30.034 30.034 0 0 0 -30-30zm0 58a28 28 0 1 1 28-28 28.032 28.032 0 0 1 -28 28z"/><path d="m32 6a26 26 0 1 0 26 26 26.029 26.029 0 0 0 -26-26zm0 50a24 24 0 1 1 24-24 24.028 24.028 0 0 1 -24 24z"/><path d="m16.286 47.7a21.713 21.713 0 0 0 15.714 6.3v-2a19.733 19.733 0 0 1 -14.286-5.7z"/><path d="m34 52h2v2h-2z"/><path d="m38 51h2v2h-2z"/><path d="m29 10h2v2h-2z"/><path d="m33 10h2v2h-2z"/><path d="m24 32a3 3 0 1 0 3 3 3 3 0 0 0 -3-3zm0 4a1 1 0 1 1 1-1 1 1 0 0 1 -1 1z"/><path d="m43 37a3 3 0 0 0 -3 3v1a1 1 0 0 1 -2 0v-2c0-3.792 2.919-12.6 2.97-12.758a10.181 10.181 0 0 0 -1.806-8.68 9.4 9.4 0 0 0 -14.558-.218 9.207 9.207 0 0 0 -1.576 7.9l.691 2.764a7 7 0 0 0 -6.644 8.047 6.922 6.922 0 0 0 6.923 5.945h.048a7.032 7.032 0 0 0 6.94-5.817 10.389 10.389 0 0 0 -.662-6.372 30.554 30.554 0 0 1 -1.453-5.421 4.091 4.091 0 0 1 .8-3.308 3 3 0 0 1 2.359-1.082h.144a2.717 2.717 0 0 1 2.207 1.1 4.264 4.264 0 0 1 .659 3.609c-.124.418-3.042 10.18-3.042 13.291v3a7 7 0 0 0 14 0v-1a3 3 0 0 0 -3-3zm1 4a5 5 0 0 1 -10 0v-3c0-2.34 2.135-9.97 2.967-12.745a6.321 6.321 0 0 0 -1-5.372 4.7 4.7 0 0 0 -3.791-1.883h-.144a5.009 5.009 0 0 0 -3.9 1.8 6.026 6.026 0 0 0 -1.232 4.931 32.366 32.366 0 0 0 1.537 5.743 8.473 8.473 0 0 1 .583 5.343 5.056 5.056 0 0 1 -4.99 4.183 5 5 0 0 1 -3.815-8.268 5 5 0 0 1 3.785-1.732h1a1 1 0 0 0 .97-1.242l-1-3.987a7.139 7.139 0 0 1 12.613-5.979 8.139 8.139 0 0 1 1.464 6.892c-.12.374-3.047 9.201-3.047 13.316v2a3 3 0 0 0 6 0v-1a1 1 0 0 1 2 0z"/></g></svg>