<?xml version="1.0" encoding="iso-8859-1"?>
<!-- Generator: Adobe Illustrator 19.0.0, SVG Export Plug-In . SVG Version: 6.00 Build 0)  -->
<svg version="1.1" id="Capa_1" xmlns="http://www.w3.org/2000/svg" xmlns:xlink="http://www.w3.org/1999/xlink" x="0px" y="0px"
	 viewBox="0 0 58 58" style="enable-background:new 0 0 58 58;" xml:space="preserve">
<g>
	<path d="M29,0C13.009,0,0,13.01,0,29s13.009,29,29,29s29-13.01,29-29S44.991,0,29,0z M38.5,43.5l-0.148-0.001
		c-2.705-0.044-5.094-1.623-6.229-4.121c-1.184-2.606-0.776-5.578,1.065-7.755c1.36-1.608,2.564-3.598,3.579-5.913
		c1.111-2.534,0.927-5.467-0.493-7.845c-1.333-2.233-3.548-3.632-6.076-3.837C29.969,14.01,29.735,14,29.5,14
		c-4.846,0-8.5,3.439-8.5,8v6.075c3.663,0.491,6.5,3.629,6.5,7.425c0,4.136-3.364,7.5-7.5,7.5s-7.5-3.364-7.5-7.5
		c0-3.796,2.837-6.934,6.5-7.425V22c0-5.701,4.514-10,10.5-10c0.289,0,0.575,0.012,0.859,0.034c3.182,0.259,5.964,2.01,7.633,4.806
		c1.75,2.933,1.978,6.549,0.607,9.673c-1.093,2.492-2.399,4.646-3.883,6.401c-1.337,1.581-1.632,3.741-0.771,5.637
		c0.824,1.814,2.486,2.916,4.447,2.948L38.5,41.5c3.584,0,6.5-2.916,6.5-6.5c0-0.553,0.448-1,1-1c0.553,0,1,0.447,1,1
		C47,39.687,43.187,43.5,38.5,43.5z"/>
</g>
<g>
</g>
<g>
</g>
<g>
</g>
<g>
</g>
<g>
</g>
<g>
</g>
<g>
</g>
<g>
</g>
<g>
</g>
<g>
</g>
<g>
</g>
<g>
</g>
<g>
</g>
<g>
</g>
<g>
</g>
</svg>
