<svg height="512" viewBox="0 0 512 512" width="512" xmlns="http://www.w3.org/2000/svg"><g id="BULINE"><circle cx="256" cy="256" fill="#934cf5" r="256"/></g><g id="Icons"><path d="m406 67.08v378.67a11 11 0 0 1 -11 11h-278a11 11 0 0 1 -11-11v-378.67a11 11 0 0 1 11-11h278a11 11 0 0 1 11 11z" fill="#fff"/><path d="m406 67.08v24.67h-300v-24.67a11 11 0 0 1 11-11h278a11 11 0 0 1 11 11z" fill="#d8d8d8"/><rect fill="#b0d46c" height="128" rx="11" width="139" x="122" y="107.08"/><rect fill="#bcbcbc" height="14" rx="7" width="117" x="276" y="107.08"/><g fill="#d8d8d8"><rect height="14" rx="7" width="70" x="323" y="138.08"/><rect height="14" rx="7" width="38.5" x="278" y="138.08"/><rect height="14" rx="7" width="117" x="276" y="169.08"/><rect height="14" rx="7" width="54" x="276" y="200.08"/><rect height="14" rx="7" width="55" x="338" y="200.08"/><rect height="14" rx="7" width="117" x="276" y="231.08"/><rect height="14" rx="7" width="271" x="122" y="262.08"/><rect height="14" rx="7" width="121.5" x="122" y="293.08"/><rect height="14" rx="7" width="139" x="254" y="292.83"/><rect height="14" rx="7" width="121.5" x="122" y="386.58"/><rect height="14" rx="7" width="139" x="254" y="386.33"/><rect height="14" rx="7" width="53" x="122" y="324.08"/><rect height="14" rx="7" width="130" x="185.5" y="324.08"/><rect height="14" rx="7" width="67.38" x="325.62" y="324.08"/><rect height="14" rx="7" width="271" x="122" y="355.08"/><rect height="14" rx="7" width="271" x="122" y="417.08"/></g><path d="m246.67 223.3a55.07 55.07 0 0 1 -1.26 11.78h-107.82a55.18 55.18 0 1 1 109.08-11.78z" fill="#a3c161"/><circle cx="207.75" cy="151.08" fill="#f6d372" r="35.42"/><circle cx="126.33" cy="73.92" fill="#00b564" r="10"/><circle cx="152.33" cy="73.92" fill="#fc4581" r="10"/><circle cx="178.33" cy="73.92" fill="#41c0e3" r="10"/><path d="m244.8 334.75 51.2-51.22a9.36 9.36 0 1 0 -13.24-13.24l-57.84 57.84a9.36 9.36 0 0 0 0 13.24l57.84 57.84a9.36 9.36 0 1 0 13.24-13.21z" fill="#7cc8fb"/><circle cx="231.56" cy="334.75" fill="#f55b4b" r="47.44"/><path d="m240 381.46a48.65 48.65 0 0 1 -8.42.73 47.45 47.45 0 0 1 0-94.89 48.65 48.65 0 0 1 8.42.7 47.47 47.47 0 0 0 0 93.42z" fill="#db1b1b"/><circle cx="298.76" cy="267.54" fill="#fc715a" r="29.96"/><path d="m305.62 296.7a29.36 29.36 0 0 1 -6.87.8 30 30 0 1 1 6.87-59.11 30 30 0 0 0 0 58.31z" fill="#f55b4b"/><circle cx="298.76" cy="401.95" fill="#db1b1b" r="29.96"/><path d="m305.62 431.11a30 30 0 1 1 0-58.32 30 30 0 0 0 0 58.32z" fill="#bc1b1b"/></g></svg>